Simulation
nRows=27
nColumns=15
endheader
time  TH_x TH_y TH_z SC_y  SC_z  SC_x  AC_y  AC_z  AC_x  GH_y  GH_z  GH_yy  EL_x  PS_y
0.0  0.000000  0.000000  0.000000  -28.907389215148292  -0.5035331044051237  -2.219826779026308  55.32405093135484  8.12758231922475  -6.860933927754206  33.66267352223262  16.264637571704416  7.426327850443243  27.14846145720816  0.000000
0.038999999999999986  0.000000  0.000000  0.000000  -28.54315712483185  -0.3209035225239295  -2.291388751229896  55.00348625955509  8.083822135934069  -6.87093317392473  33.70156063776815  16.69838964232241  7.224418919928008  26.72795610736112  0.000000
0.07799999999999997  0.000000  0.000000  0.000000  -28.216386659446517  -0.20945986672129205  -2.4504442477509754  54.67401679052666  8.005153871424884  -6.894986020660505  33.67647419631319  17.044792165848595  7.107751840236109  26.302720701738743  0.000000
0.11699999999999997  0.000000  0.000000  0.000000  -27.93215445846223  -0.16880199754581066  -2.6926616109840884  54.37401558368959  7.947898203538838  -6.9026210487504205  33.72119054425079  17.369739022732638  6.913678907327724  25.898405028295347  0.000000
0.15599999999999994  0.000000  0.000000  0.000000  -27.69780154978134  -0.1946423704275611  -2.990728045916744  54.14644456755913  7.948090942131897  -6.87811259505316  33.977291062979255  17.75206264792008  6.441846362990343  25.531921385277528  0.000000
0.19499999999999992  0.000000  0.000000  0.000000  -27.52975164399022  -0.2655833089207923  -3.2971306128326305  54.02426409687926  8.016734914806428  -6.811429824713253  34.57123312342614  18.267193258154183  5.50979269472213  25.222434692143292  0.000000
0.23399999999999993  0.000000  0.000000  0.000000  -27.43351821844386  -0.3552262460555471  -3.5616033864638146  54.019995065909846  8.150088944121524  -6.706620431713855  35.58972615353633  18.97632179627367  3.977003773023679  24.982019813049664  0.000000
0.2729999999999999  0.000000  0.000000  0.000000  -27.408398668680707  -0.43876026245300326  -3.7370843273705496  54.131980983766866  8.332883954168155  -6.577605850563409  37.04113829774637  19.924068267917363  1.796982148883526  24.813800610606886  0.000000
0.3119999999999999  0.000000  0.000000  0.000000  -27.436858688530645  -0.49688152040337225  -3.786446865874091  54.34519022183443  8.5449017173832  -6.444633488480822  38.8492349690613  21.133933791464816  -0.978545836574973  24.714158267096977  0.000000
0.35099999999999987  0.000000  0.000000  0.000000  -27.488132459938093  -0.5197401022617874  -3.6833268707657547  54.641412975933264  8.766083755777572  -6.328982656377869  40.862681175199576  22.606649307658163  -4.200295913304618  24.674673903963093  0.000000
0.38999999999999985  0.000000  0.000000  0.000000  -27.523436946508866  -0.5023318590529228  -3.411105985747526  54.99917443809623  8.978979624009913  -6.24926356966851  42.906576739967605  24.319107857698732  -7.67573624506734  24.691672281706122  0.000000
0.4289999999999998  0.000000  0.000000  0.000000  -27.50717492395795  -0.4449517478719962  -2.9594146803446644  55.39899377152085  9.170886102498784  -6.221960282877865  44.82872373430102  26.22874668154193  -11.217029040323418  24.759853747875027  0.000000
0.46799999999999986  0.000000  0.000000  0.000000  -27.413713417897803  -0.35242019143047826  -2.3244063948121125  55.82197203900777  9.335617231705095  -6.260903036641241  46.53256839561487  28.281439234475613  -14.683623493539379  24.865561063339065  0.000000
0.5069999999999998  0.000000  0.000000  0.000000  -27.23520197187121  -0.2283000733779471  -1.507110370777127  56.25066875814473  9.470189033422873  -6.374842406123403  47.98605768321863  30.42106583743049  -17.998350960646675  24.99041255546922  0.000000
0.5459999999999998  0.000000  0.000000  0.000000  -26.983411886614853  -0.07314788915370897  -0.5116718848253479  56.668078244898496  9.570405337034007  -6.566709927068231  49.211597332912454  32.5984558200874  -21.14558157061222  25.1140783327396  0.000000
0.5849999999999997  0.000000  0.000000  0.000000  -26.686365314778648  0.11305160707384768  0.6535155527662833  57.05954095497427  9.631052248394148  -6.83465111118428  50.26308984588139  34.77739822985004  -24.15527953911714  25.217058865914062  0.000000
0.6239999999999998  0.000000  0.000000  0.000000  -26.38127145104716  0.33027531098819535  1.974771035730374  57.41425201681952  9.647110999751243  -7.170803853369231  51.20213742545479  36.935237058470115  -27.07628004642588  25.284987132138987  0.000000
0.6629999999999998  0.000000  0.000000  0.000000  -26.102977076230747  0.5784366001122285  3.432901168229485  57.72771749258804  9.616072216025193  -7.560082924069455  52.076472612805105  39.059004319000366  -29.946618503834035  25.30996210893849  0.000000
0.7019999999999997  0.000000  0.000000  0.000000  -25.873511537705614  0.8571773256540997  5.00483634727018  58.00370418865255  9.539913546624355  -7.979765858859446  52.90492103711464  41.13892439666126  -32.76707840614148  25.288641929934666  0.000000
0.7409999999999998  0.000000  0.000000  0.000000  -25.697426127166125  1.1663569615417273  6.665386136141879  58.2537561953469  9.425061947756475  -8.40011451780134  53.67292564183357  43.162305074962596  -35.49138358171467  25.22122787137039  0.000000
0.7799999999999997  0.000000  0.000000  0.000000  -25.56664146760793  1.5062300074676669  8.387136524900287  58.49392873535367  9.280497579164352  -8.78617196858228  54.34175171339151  45.111023802164425  -38.038739741100486  25.112077685873206  0.000000
0.8189999999999997  0.000000  0.000000  0.000000  -25.469657594496837  1.8773650255491356  10.137738718203062  58.739986358001495  9.115104610010933  -9.100191916560004  54.86368930412088  46.963605441730266  -40.3213289446914  24.97144492775932  0.000000
0.8579999999999997  0.000000  0.000000  0.000000  -25.400182943879564  2.2801375064257186  11.87758056585393  59.003215662903365  8.93714638537109  -9.30580382388871  55.19818978047796  48.69994681561566  -42.272175891454324  24.816297881734123  0.000000
0.8969999999999997  0.000000  0.000000  0.000000  -25.359886541286414  2.7143080301054074  13.560763303254216  59.28803792852561  8.755447769495575  -9.37285048109583  55.32195341012558  50.306055420515925  -43.86027033861902  24.668757693948244  0.000000
0.9359999999999997  0.000000  0.000000  0.000000  -25.35512751043767  3.177185960523755  15.141459000682294  59.59105879008992  8.582907147781995  -9.283980529900823  55.23499903053364  51.7759625008669  -45.0922345347092  24.550816444078638  0.000000
0.9749999999999996  0.000000  0.000000  0.000000  -25.391832396358932  3.662435184282719  16.582927916582463  59.901503838504134  8.437723919534468  -9.039699200535193  54.96078376080722  53.1117547445988  -46.00481829027519  24.477201677049145  0.000000
1.0139999999999996  0.000000  0.000000  0.000000  -25.472793794287  4.1612276727226085  17.863922010895696  60.205737648245105  8.339279752933903  -8.656825333368248  54.53663041021514  54.32155781800064  -46.65218192051762  24.44904753455929  0.000000
